<mxfile host="65bd71144e">
    <diagram id="gwi35L6yGA_QJSuEn1u1" name="Page-1">
        <mxGraphModel dx="896" dy="1701" grid="1" gridSize="10" guides="1" tooltips="1" connect="1" arrows="1" fold="1" page="1" pageScale="1" pageWidth="850" pageHeight="1100" math="0" shadow="0">
            <root>
                <mxCell id="0"/>
                <mxCell id="1" parent="0"/>
                <mxCell id="2" value="" style="whiteSpace=wrap;html=1;aspect=fixed;" vertex="1" parent="1">
                    <mxGeometry x="80" y="-160" width="540" height="540" as="geometry"/>
                </mxCell>
                <mxCell id="3" value="Add operator" style="rounded=0;whiteSpace=wrap;html=1;" vertex="1" parent="1">
                    <mxGeometry x="360" y="-40" width="80" height="20" as="geometry"/>
                </mxCell>
                <mxCell id="4" value="" style="rounded=0;whiteSpace=wrap;html=1;" vertex="1" parent="1">
                    <mxGeometry x="190" y="-100" width="150" height="80" as="geometry"/>
                </mxCell>
                <mxCell id="5" value="Vertical Container" style="swimlane;whiteSpace=wrap;html=1;" vertex="1" parent="1">
                    <mxGeometry x="120" y="40" width="470" height="200" as="geometry"/>
                </mxCell>
                <mxCell id="8" value="Operator nick name" style="rounded=0;whiteSpace=wrap;html=1;" vertex="1" parent="5">
                    <mxGeometry x="90" y="30" width="90" height="30" as="geometry"/>
                </mxCell>
                <mxCell id="9" value="Computatinal power" style="rounded=0;whiteSpace=wrap;html=1;" vertex="1" parent="5">
                    <mxGeometry x="180" y="30" width="90" height="30" as="geometry"/>
                </mxCell>
                <mxCell id="10" value="total minors" style="rounded=0;whiteSpace=wrap;html=1;" vertex="1" parent="5">
                    <mxGeometry x="270" y="30" width="90" height="30" as="geometry"/>
                </mxCell>
                <mxCell id="11" value="" style="rounded=0;whiteSpace=wrap;html=1;" vertex="1" parent="5">
                    <mxGeometry x="360" y="30" width="90" height="30" as="geometry"/>
                </mxCell>
                <mxCell id="6" value="ID: #1&lt;br&gt;Name:&amp;nbsp;" style="text;html=1;strokeColor=none;fillColor=none;align=center;verticalAlign=middle;whiteSpace=wrap;rounded=0;" vertex="1" parent="1">
                    <mxGeometry x="190" y="-100" width="90" height="80" as="geometry"/>
                </mxCell>
                <mxCell id="7" value="Id" style="rounded=0;whiteSpace=wrap;html=1;" vertex="1" parent="1">
                    <mxGeometry x="120" y="70" width="90" height="30" as="geometry"/>
                </mxCell>
            </root>
        </mxGraphModel>
    </diagram>
</mxfile>